<svg width="358" height="50" viewBox="0 0 358 50" fill="none" xmlns="http://www.w3.org/2000/svg">
<rect width="358" height="50" rx="2" fill="black"/>
<path d="M162.608 23C162.122 20.3153 159.974 18.7301 157.341 18.7301C153.991 18.7301 151.562 21.3125 151.562 25.4545C151.562 29.5966 153.991 32.179 157.341 32.179C159.974 32.179 162.122 30.5938 162.608 27.9091H161.022C160.639 29.7244 159.079 30.696 157.341 30.696C154.963 30.696 153.096 28.8551 153.096 25.4545C153.096 22.054 154.963 20.2131 157.341 20.2131C159.079 20.2131 160.639 21.1847 161.022 23H162.608ZM164.965 32H166.473V25.7869C166.473 24.4574 167.521 23.4858 168.953 23.4858C169.356 23.4858 169.771 23.5625 169.874 23.5881V22.054C169.701 22.0412 169.305 22.0284 169.081 22.0284C167.905 22.0284 166.882 22.6932 166.524 23.6648H166.422V22.1818H164.965V32ZM175.48 32.2045C177.474 32.2045 178.931 31.2074 179.392 29.7244L177.934 29.3153C177.551 30.3381 176.662 30.8494 175.48 30.8494C173.709 30.8494 172.488 29.7053 172.418 27.6023H179.545V26.9631C179.545 23.3068 177.372 22.054 175.326 22.054C172.667 22.054 170.903 24.1506 170.903 27.1676C170.903 30.1847 172.642 32.2045 175.48 32.2045ZM172.418 26.2983C172.52 24.7706 173.6 23.4091 175.326 23.4091C176.963 23.4091 178.011 24.6364 178.011 26.2983H172.418ZM184.729 32.2301C186.442 32.2301 187.337 31.3097 187.644 30.6705H187.72V32H189.229V25.5312C189.229 22.4119 186.851 22.054 185.598 22.054C184.115 22.054 182.428 22.5653 181.661 24.3551L183.093 24.8665C183.425 24.1506 184.211 23.3835 185.649 23.3835C187.036 23.3835 187.72 24.1186 187.72 25.3778V25.429C187.72 26.1577 186.979 26.0938 185.189 26.3239C183.367 26.5604 181.379 26.9631 181.379 29.2131C181.379 31.1307 182.862 32.2301 184.729 32.2301ZM184.959 30.875C183.757 30.875 182.888 30.3381 182.888 29.2898C182.888 28.1392 183.936 27.7812 185.112 27.6278C185.752 27.5511 187.465 27.3722 187.72 27.0653V28.446C187.72 29.6733 186.749 30.875 184.959 30.875ZM196.252 22.1818H194.156V19.8295H192.647V22.1818H191.164V23.4602H192.647V29.5966C192.647 31.3097 194.028 32.1278 195.306 32.1278C195.869 32.1278 196.227 32.0256 196.431 31.9489L196.124 30.5938C195.996 30.6193 195.792 30.6705 195.46 30.6705C194.795 30.6705 194.156 30.4659 194.156 29.1875V23.4602H196.252V22.1818ZM202.532 32.2045C204.527 32.2045 205.984 31.2074 206.444 29.7244L204.987 29.3153C204.603 30.3381 203.715 30.8494 202.532 30.8494C200.762 30.8494 199.541 29.7053 199.471 27.6023H206.598V26.9631C206.598 23.3068 204.424 22.054 202.379 22.054C199.72 22.054 197.956 24.1506 197.956 27.1676C197.956 30.1847 199.694 32.2045 202.532 32.2045ZM199.471 26.2983C199.573 24.7706 200.653 23.4091 202.379 23.4091C204.015 23.4091 205.064 24.6364 205.064 26.2983H199.471Z" fill="white"/>
</svg>
