<svg width="358" height="50" fill="none" xmlns="http://www.w3.org/2000/svg"><rect width="358" height="50" rx="2" fill="#000"/><path d="m164.229 18.91 4.73 7.695V32h1.585v-5.395l4.73-7.696h-1.815l-3.631 6.11h-.153l-3.631-6.11h-1.815Zm15.619 13.295c1.994 0 3.451-.998 3.912-2.48l-1.458-.41c-.383 1.023-1.272 1.534-2.454 1.534-1.771 0-2.992-1.144-3.062-3.247h7.127v-.639c0-3.656-2.173-4.909-4.219-4.909-2.659 0-4.423 2.097-4.423 5.114s1.739 5.037 4.577 5.037Zm-3.062-5.907c.102-1.527 1.182-2.889 2.908-2.889 1.637 0 2.685 1.227 2.685 2.89h-5.593Zm16.376-1.917c-.473-1.394-1.534-2.327-3.477-2.327-2.071 0-3.605 1.176-3.605 2.838 0 1.355.805 2.263 2.608 2.685l1.636.383c.991.23 1.458.703 1.458 1.38 0 .845-.895 1.535-2.301 1.535-1.234 0-2.008-.53-2.276-1.585l-1.432.358c.352 1.668 1.726 2.557 3.733 2.557 2.282 0 3.835-1.247 3.835-2.94 0-1.369-.856-2.232-2.608-2.66l-1.457-.358c-1.163-.288-1.687-.677-1.687-1.432 0-.843.894-1.457 2.096-1.457 1.317 0 1.86.729 2.122 1.406l1.355-.383Z" fill="#fff"/></svg>